<svg xmlns="http://www.w3.org/2000/svg" width="458.49" height="35" viewBox="0 0 458.49 35"><rect class="svg__rect" x="0" y="0" width="183.6" height="35" fill="#E46C17"/><rect class="svg__rect" x="181.6" y="0" width="276.89" height="35" fill="#D35B09"/><path class="svg__text" d="M15.70 22L14.22 22L14.22 13.47L15.70 13.47L19.51 19.54L19.51 13.47L20.98 13.47L20.98 22L19.50 22L15.70 15.95L15.70 22ZM25.46 18.00L25.46 18.00L25.46 17.52Q25.46 16.28 25.90 15.32Q26.34 14.37 27.15 13.86Q27.95 13.35 28.99 13.35Q30.04 13.35 30.84 13.85Q31.65 14.35 32.09 15.29Q32.53 16.23 32.53 17.48L32.53 17.48L32.53 17.96Q32.53 19.21 32.10 20.16Q31.67 21.10 30.86 21.61Q30.06 22.12 29.01 22.12L29.01 22.12Q27.97 22.12 27.16 21.61Q26.35 21.10 25.90 20.17Q25.46 19.23 25.46 18.00ZM26.94 17.46L26.94 17.96Q26.94 19.36 27.49 20.13Q28.03 20.90 29.01 20.90L29.01 20.90Q29.99 20.90 30.52 20.15Q31.05 19.40 31.05 17.96L31.05 17.96L31.05 17.51Q31.05 16.09 30.52 15.34Q29.98 14.58 28.99 14.58L28.99 14.58Q28.03 14.58 27.49 15.33Q26.95 16.09 26.94 17.46L26.94 17.46ZM38.68 14.66L36.04 14.66L36.04 13.47L42.81 13.47L42.81 14.66L40.15 14.66L40.15 22L38.68 22L38.68 14.66ZM51.94 19.57L51.94 19.57L53.42 19.57Q53.42 20.25 53.75 20.59Q54.09 20.93 54.73 20.93L54.73 20.93Q55.33 20.93 55.68 20.54Q56.04 20.14 56.04 19.45L56.04 19.45L56.04 13.47L57.51 13.47L57.51 19.45Q57.51 20.68 56.75 21.40Q55.98 22.12 54.73 22.12L54.73 22.12Q53.39 22.12 52.67 21.44Q51.94 20.77 51.94 19.57ZM62.06 19.16L62.06 19.16L62.06 13.47L63.54 13.47L63.54 19.18Q63.54 20.03 63.97 20.48Q64.40 20.93 65.25 20.93L65.25 20.93Q66.96 20.93 66.96 19.13L66.96 19.13L66.96 13.47L68.43 13.47L68.43 19.17Q68.43 20.53 67.56 21.32Q66.69 22.12 65.25 22.12L65.25 22.12Q63.78 22.12 62.92 21.33Q62.06 20.55 62.06 19.16ZM72.57 19.42L72.57 19.42L74.05 19.42Q74.05 20.15 74.53 20.55Q75.01 20.95 75.91 20.95L75.91 20.95Q76.68 20.95 77.07 20.63Q77.46 20.32 77.46 19.80L77.46 19.80Q77.46 19.24 77.07 18.94Q76.67 18.63 75.64 18.32Q74.61 18.01 74.00 17.63L74.00 17.63Q72.83 16.90 72.83 15.72L72.83 15.72Q72.83 14.69 73.68 14.02Q74.52 13.35 75.86 13.35L75.86 13.35Q76.75 13.35 77.45 13.68Q78.14 14.01 78.54 14.61Q78.94 15.22 78.94 15.96L78.94 15.96L77.46 15.96Q77.46 15.29 77.04 14.91Q76.63 14.54 75.85 14.54L75.85 14.54Q75.12 14.54 74.72 14.85Q74.32 15.16 74.32 15.71L74.32 15.71Q74.32 16.18 74.75 16.50Q75.18 16.81 76.18 17.10Q77.18 17.40 77.78 17.78Q78.38 18.16 78.66 18.65Q78.95 19.13 78.95 19.79L78.95 19.79Q78.95 20.86 78.13 21.49Q77.31 22.12 75.91 22.12L75.91 22.12Q74.98 22.12 74.21 21.77Q73.43 21.43 73.00 20.83Q72.57 20.22 72.57 19.42ZM84.92 14.66L82.28 14.66L82.28 13.47L89.05 13.47L89.05 14.66L86.39 14.66L86.39 22L84.92 22L84.92 14.66ZM99.56 22L98.02 22L101.24 13.47L102.57 13.47L105.80 22L104.25 22L103.56 20.01L100.25 20.01L99.56 22ZM101.90 15.28L100.67 18.82L103.14 18.82L101.90 15.28ZM111.24 22L109.75 22L109.75 13.47L111.24 13.47L115.05 19.54L115.05 13.47L116.52 13.47L116.52 22L115.04 22L111.24 15.95L111.24 22ZM120.99 18.00L120.99 18.00L120.99 17.52Q120.99 16.28 121.43 15.32Q121.88 14.37 122.68 13.86Q123.49 13.35 124.53 13.35Q125.57 13.35 126.38 13.85Q127.19 14.35 127.63 15.29Q128.06 16.23 128.07 17.48L128.07 17.48L128.07 17.96Q128.07 19.21 127.64 20.16Q127.20 21.10 126.40 21.61Q125.59 22.12 124.54 22.12L124.54 22.12Q123.51 22.12 122.69 21.61Q121.88 21.10 121.44 20.17Q121.00 19.23 120.99 18.00ZM122.47 17.46L122.47 17.96Q122.47 19.36 123.02 20.13Q123.57 20.90 124.54 20.90L124.54 20.90Q125.53 20.90 126.06 20.15Q126.59 19.40 126.59 17.96L126.59 17.96L126.59 17.51Q126.59 16.09 126.05 15.34Q125.52 14.58 124.53 14.58L124.53 14.58Q123.57 14.58 123.03 15.33Q122.49 16.09 122.47 17.46L122.47 17.46ZM134.22 14.66L131.58 14.66L131.58 13.47L138.35 13.47L138.35 14.66L135.69 14.66L135.69 22L134.22 22L134.22 14.66ZM143.59 22L142.10 22L142.10 13.47L143.59 13.47L143.59 17.02L147.40 17.02L147.40 13.47L148.88 13.47L148.88 22L147.40 22L147.40 18.21L143.59 18.21L143.59 22ZM159.20 22L153.62 22L153.62 13.47L159.15 13.47L159.15 14.66L155.10 14.66L155.10 17.02L158.60 17.02L158.60 18.19L155.10 18.19L155.10 20.82L159.20 20.82L159.20 22ZM164.87 22L163.39 22L163.39 13.47L166.39 13.47Q167.87 13.47 168.67 14.13Q169.47 14.79 169.47 16.05L169.47 16.05Q169.47 16.90 169.06 17.48Q168.65 18.06 167.91 18.37L167.91 18.37L169.82 21.92L169.82 22L168.24 22L166.53 18.71L164.87 18.71L164.87 22ZM164.87 14.66L164.87 17.52L166.40 17.52Q167.15 17.52 167.57 17.15Q167.99 16.77 167.99 16.11L167.99 16.11Q167.99 15.43 167.60 15.05Q167.21 14.68 166.44 14.66L166.44 14.66L164.87 14.66Z" fill="#FFFFFF"/><path class="svg__text" d="M198.37 22L194.78 13.60L197.35 13.60L199.63 19.07L201.96 13.60L204.31 13.60L200.71 22L198.37 22ZM215.21 22L208.46 22L208.46 13.60L215.05 13.60L215.05 15.44L210.82 15.44L210.82 16.85L214.55 16.85L214.55 18.63L210.82 18.63L210.82 20.17L215.21 20.17L215.21 22ZM222.39 22L220.01 22L220.01 13.60L223.85 13.60Q225.00 13.60 225.83 13.98Q226.67 14.35 227.13 15.06Q227.59 15.76 227.59 16.71L227.59 16.71Q227.59 17.62 227.16 18.30Q226.73 18.98 225.94 19.36L225.94 19.36L227.75 22L225.21 22L223.68 19.77L222.39 19.77L222.39 22ZM222.39 15.47L222.39 17.93L223.71 17.93Q224.44 17.93 224.81 17.61Q225.18 17.29 225.18 16.71L225.18 16.71Q225.18 16.12 224.81 15.79Q224.44 15.47 223.71 15.47L223.71 15.47L222.39 15.47ZM231.79 21.24L231.79 21.24L232.57 19.49Q233.13 19.86 233.87 20.09Q234.62 20.32 235.34 20.32L235.34 20.32Q236.70 20.32 236.71 19.64L236.71 19.64Q236.71 19.28 236.32 19.11Q235.93 18.93 235.06 18.74L235.06 18.74Q234.11 18.53 233.48 18.30Q232.84 18.06 232.39 17.55Q231.93 17.03 231.93 16.16L231.93 16.16Q231.93 15.39 232.35 14.77Q232.77 14.15 233.61 13.79Q234.44 13.43 235.65 13.43L235.65 13.43Q236.48 13.43 237.28 13.62Q238.09 13.80 238.70 14.17L238.70 14.17L237.97 15.93Q236.77 15.28 235.64 15.28L235.64 15.28Q234.93 15.28 234.61 15.49Q234.28 15.70 234.28 16.04L234.28 16.04Q234.28 16.37 234.67 16.54Q235.05 16.71 235.90 16.89L235.90 16.89Q236.86 17.10 237.49 17.33Q238.12 17.56 238.58 18.07Q239.05 18.58 239.05 19.46L239.05 19.46Q239.05 20.21 238.63 20.83Q238.21 21.44 237.37 21.80Q236.53 22.17 235.33 22.17L235.33 22.17Q234.31 22.17 233.35 21.92Q232.39 21.67 231.79 21.24ZM246.00 22L243.62 22L243.62 13.60L246.00 13.60L246.00 22ZM250.75 17.80L250.75 17.80Q250.75 16.55 251.35 15.55Q251.96 14.56 253.02 14.00Q254.08 13.43 255.41 13.43L255.41 13.43Q256.74 13.43 257.81 14.00Q258.87 14.56 259.48 15.55Q260.08 16.55 260.08 17.80L260.08 17.80Q260.08 19.05 259.48 20.04Q258.87 21.04 257.81 21.60Q256.75 22.17 255.41 22.17L255.41 22.17Q254.08 22.17 253.02 21.60Q251.96 21.04 251.35 20.04Q250.75 19.05 250.75 17.80ZM253.15 17.80L253.15 17.80Q253.15 18.51 253.45 19.05Q253.75 19.60 254.26 19.90Q254.78 20.20 255.41 20.20L255.41 20.20Q256.05 20.20 256.57 19.90Q257.08 19.60 257.38 19.05Q257.68 18.51 257.68 17.80L257.68 17.80Q257.68 17.09 257.38 16.54Q257.08 16 256.57 15.70Q256.05 15.40 255.41 15.40L255.41 15.40Q254.77 15.40 254.26 15.70Q253.75 16 253.45 16.54Q253.15 17.09 253.15 17.80ZM267.14 22L264.81 22L264.81 13.60L266.77 13.60L270.48 18.07L270.48 13.60L272.80 13.60L272.80 22L270.85 22L267.14 17.52L267.14 22ZM284.51 17.80L284.51 17.80Q284.51 16.54 285.11 15.54Q285.71 14.55 286.76 13.99Q287.81 13.43 289.13 13.43L289.13 13.43Q290.28 13.43 291.20 13.84Q292.13 14.25 292.74 15.02L292.74 15.02L291.23 16.39Q290.42 15.40 289.25 15.40L289.25 15.40Q288.57 15.40 288.03 15.70Q287.50 16 287.20 16.54Q286.91 17.09 286.91 17.80L286.91 17.80Q286.91 18.51 287.20 19.05Q287.50 19.60 288.03 19.90Q288.57 20.20 289.25 20.20L289.25 20.20Q290.42 20.20 291.23 19.22L291.23 19.22L292.74 20.58Q292.13 21.35 291.21 21.76Q290.28 22.17 289.13 22.17L289.13 22.17Q287.81 22.17 286.76 21.61Q285.71 21.05 285.11 20.05Q284.51 19.06 284.51 17.80ZM296.85 17.80L296.85 17.80Q296.85 16.55 297.45 15.55Q298.06 14.56 299.12 14.00Q300.18 13.43 301.51 13.43L301.51 13.43Q302.84 13.43 303.91 14.00Q304.97 14.56 305.58 15.55Q306.18 16.55 306.18 17.80L306.18 17.80Q306.18 19.05 305.58 20.04Q304.97 21.04 303.91 21.60Q302.85 22.17 301.51 22.17L301.51 22.17Q300.18 22.17 299.12 21.60Q298.06 21.04 297.45 20.04Q296.85 19.05 296.85 17.80ZM299.25 17.80L299.25 17.80Q299.25 18.51 299.55 19.05Q299.85 19.60 300.37 19.90Q300.88 20.20 301.51 20.20L301.51 20.20Q302.15 20.20 302.67 19.90Q303.18 19.60 303.48 19.05Q303.78 18.51 303.78 17.80L303.78 17.80Q303.78 17.09 303.48 16.54Q303.18 16 302.67 15.70Q302.15 15.40 301.51 15.40L301.51 15.40Q300.88 15.40 300.36 15.70Q299.85 16 299.55 16.54Q299.25 17.09 299.25 17.80ZM313.24 22L310.91 22L310.91 13.60L312.87 13.60L316.58 18.07L316.58 13.60L318.91 13.60L318.91 22L316.95 22L313.24 17.52L313.24 22ZM325.86 15.48L323.28 15.48L323.28 13.60L330.80 13.60L330.80 15.48L328.23 15.48L328.23 22L325.86 22L325.86 15.48ZM337.55 22L335.17 22L335.17 13.60L339.01 13.60Q340.16 13.60 340.99 13.98Q341.83 14.35 342.29 15.06Q342.75 15.76 342.75 16.71L342.75 16.71Q342.75 17.62 342.32 18.30Q341.89 18.98 341.10 19.36L341.10 19.36L342.91 22L340.37 22L338.84 19.77L337.55 19.77L337.55 22ZM337.55 15.47L337.55 17.93L338.87 17.93Q339.60 17.93 339.97 17.61Q340.34 17.29 340.34 16.71L340.34 16.71Q340.34 16.12 339.97 15.79Q339.60 15.47 338.87 15.47L338.87 15.47L337.55 15.47ZM347.11 17.80L347.11 17.80Q347.11 16.55 347.71 15.55Q348.31 14.56 349.38 14.00Q350.44 13.43 351.77 13.43L351.77 13.43Q353.10 13.43 354.16 14.00Q355.23 14.56 355.83 15.55Q356.44 16.55 356.44 17.80L356.44 17.80Q356.44 19.05 355.83 20.04Q355.23 21.04 354.17 21.60Q353.11 22.17 351.77 22.17L351.77 22.17Q350.44 22.17 349.38 21.60Q348.31 21.04 347.71 20.04Q347.11 19.05 347.11 17.80ZM349.50 17.80L349.50 17.80Q349.50 18.51 349.80 19.05Q350.11 19.60 350.62 19.90Q351.14 20.20 351.77 20.20L351.77 20.20Q352.41 20.20 352.92 19.90Q353.44 19.60 353.74 19.05Q354.04 18.51 354.04 17.80L354.04 17.80Q354.04 17.09 353.74 16.54Q353.44 16 352.92 15.70Q352.41 15.40 351.77 15.40L351.77 15.40Q351.13 15.40 350.62 15.70Q350.11 16 349.80 16.54Q349.50 17.09 349.50 17.80ZM367.56 22L361.17 22L361.17 13.60L363.55 13.60L363.55 20.11L367.56 20.11L367.56 22ZM378.36 21.24L378.36 21.24L379.14 19.49Q379.70 19.86 380.45 20.09Q381.19 20.32 381.91 20.32L381.91 20.32Q383.28 20.32 383.28 19.64L383.28 19.64Q383.28 19.28 382.89 19.11Q382.50 18.93 381.64 18.74L381.64 18.74Q380.69 18.53 380.05 18.30Q379.41 18.06 378.96 17.55Q378.51 17.03 378.51 16.16L378.51 16.16Q378.51 15.39 378.93 14.77Q379.34 14.15 380.18 13.79Q381.01 13.43 382.22 13.43L382.22 13.43Q383.05 13.43 383.85 13.62Q384.66 13.80 385.27 14.17L385.27 14.17L384.54 15.93Q383.34 15.28 382.21 15.28L382.21 15.28Q381.50 15.28 381.18 15.49Q380.86 15.70 380.86 16.04L380.86 16.04Q380.86 16.37 381.24 16.54Q381.62 16.71 382.47 16.89L382.47 16.89Q383.43 17.10 384.06 17.33Q384.69 17.56 385.16 18.07Q385.62 18.58 385.62 19.46L385.62 19.46Q385.62 20.21 385.20 20.83Q384.78 21.44 383.94 21.80Q383.10 22.17 381.90 22.17L381.90 22.17Q380.88 22.17 379.92 21.92Q378.96 21.67 378.36 21.24ZM392.32 18.95L389.12 13.60L391.63 13.60L393.62 16.94L395.61 13.60L397.91 13.60L394.70 18.99L394.70 22L392.32 22L392.32 18.95ZM401.41 21.24L401.41 21.24L402.19 19.49Q402.75 19.86 403.50 20.09Q404.24 20.32 404.96 20.32L404.96 20.32Q406.33 20.32 406.33 19.64L406.33 19.64Q406.33 19.28 405.94 19.11Q405.55 18.93 404.69 18.74L404.69 18.74Q403.74 18.53 403.10 18.30Q402.47 18.06 402.01 17.55Q401.56 17.03 401.56 16.16L401.56 16.16Q401.56 15.39 401.98 14.77Q402.40 14.15 403.23 13.79Q404.07 13.43 405.27 13.43L405.27 13.43Q406.10 13.43 406.90 13.62Q407.71 13.80 408.33 14.17L408.33 14.17L407.59 15.93Q406.39 15.28 405.26 15.28L405.26 15.28Q404.55 15.28 404.23 15.49Q403.91 15.70 403.91 16.04L403.91 16.04Q403.91 16.37 404.29 16.54Q404.67 16.71 405.52 16.89L405.52 16.89Q406.49 17.10 407.12 17.33Q407.74 17.56 408.21 18.07Q408.67 18.58 408.67 19.46L408.67 19.46Q408.67 20.21 408.25 20.83Q407.83 21.44 406.99 21.80Q406.15 22.17 404.95 22.17L404.95 22.17Q403.93 22.17 402.97 21.92Q402.01 21.67 401.41 21.24ZM415.04 15.48L412.46 15.48L412.46 13.60L419.98 13.60L419.98 15.48L417.41 15.48L417.41 22L415.04 22L415.04 15.48ZM431.09 22L424.35 22L424.35 13.60L430.94 13.60L430.94 15.44L426.71 15.44L426.71 16.85L430.44 16.85L430.44 18.63L426.71 18.63L426.71 20.17L431.09 20.17L431.09 22ZM438.10 22L435.90 22L435.90 13.60L437.86 13.60L440.81 18.45L443.69 13.60L445.64 13.60L445.67 22L443.49 22L443.46 17.55L441.30 21.17L440.25 21.17L438.10 17.67L438.10 22Z" fill="#FFFFFF" x="194.6"/></svg>